<svg version="1.1" viewBox="0 0 96 96" xmlns="http://www.w3.org/2000/svg" xmlns:xlink="http://www.w3.org/1999/xlink" id="Icons_WebDesign" overflow="hidden"><path d=" M 34.59 64.41 L 23.17 53 L 34.59 41.59 L 37.41 44.41 L 28.83 53 L 37.41 61.59 L 34.59 64.41 Z"/><path d=" M 61.41 64.41 L 58.59 61.59 L 67.17 53 L 58.59 44.41 L 61.41 41.59 L 72.83 53 L 61.41 64.41 Z"/><rect x="35.44" y="51.54" width="24.99" height="4" transform="matrix(0.382845,-0.923813,0.923813,0.382845,-19.88,77.33)"/><path d=" M 8 17 L 8 79 L 88 79 L 88 17 Z M 77 23 C 78.1046 23 79 23.8954 79 25 C 79 26.1046 78.1046 27 77 27 C 75.8954 27 75 26.1046 75 25 C 75 23.8954 75.8954 23 77 23 Z M 70 23 C 71.1046 23 72 23.8954 72 25 C 72 26.1046 71.1046 27 70 27 C 68.8954 27 68 26.1046 68 25 C 68 23.8954 68.8954 23 70 23 Z M 63 23 C 64.1046 23 65 23.8954 65 25 C 65 26.1046 64.1046 27 63 27 C 61.8954 27 61 26.1046 61 25 C 61 23.8954 61.8954 23 63 23 Z M 82 73 L 14 73 L 14 33 L 82 33 Z"/></svg>