<svg version="1.1" viewBox="0 0 96 96" xmlns="http://www.w3.org/2000/svg" xmlns:xlink="http://www.w3.org/1999/xlink" id="Icons_Connections" overflow="hidden"><path d=" M 82.9 39.1 C 82.6 39.1 82.3 39.1 82 39.1 L 79.4 32.1 C 85.4 28.7 87.5 21.1 84.2 15.1 C 80.8 9.1 73.2 7 67.2 10.3 C 64.3 11.9 62.1 14.7 61.3 17.9 L 52 16.9 C 51.3 12.5 47.2 9.4 42.8 10.1 C 38.8 10.7 35.9 14.1 35.9 18.1 C 35.9 19.5 36.3 20.9 37 22.2 L 25.8 33.2 C 23.7 31.6 21.1 30.7 18.4 30.7 C 11.5 30.7 5.9 36.3 5.9 43.2 C 5.9 50.1 11.5 55.7 18.4 55.7 L 20.9 70.7 C 16.8 72.5 14.9 77.3 16.7 81.4 C 18.5 85.5 23.3 87.4 27.4 85.6 C 31.2 84 33.1 79.8 32 75.8 L 40.8 71.2 C 46.5 77.5 56.3 78 62.7 72.3 C 65.9 69.4 67.8 65.2 67.8 60.9 C 67.8 59.8 67.7 58.6 67.4 57.5 L 77.1 52.5 C 80.1 55.9 85.2 56.2 88.6 53.2 C 92 50.2 92.3 45.1 89.3 41.7 C 87.4 40.1 85.2 39.1 82.9 39.1 L 82.9 39.1 Z M 82.9 42.1 C 84.2 42.1 85.2 43.1 85.2 44.4 C 85.2 45.7 84.2 46.7 82.9 46.7 C 81.6 46.7 80.6 45.7 80.6 44.4 C 80.6 44.4 80.6 44.4 80.6 44.4 C 80.6 43.1 81.6 42.1 82.9 42.1 L 82.9 42.1 Z M 73.3 13.6 C 75.2 13.6 76.8 15.2 76.8 17.1 C 76.8 19 75.2 20.6 73.3 20.6 C 71.4 20.6 69.8 19 69.8 17.1 C 69.8 17.1 69.8 17.1 69.8 17.1 C 69.8 15.2 71.3 13.6 73.3 13.6 Z M 66.2 25 C 66.2 24.5 66.5 23.9 66.9 23.6 C 67.9 22.9 69.1 22.3 70.3 22 C 71.2 21.7 72.2 21.6 73.2 21.6 C 74.2 21.6 75.2 21.8 76.1 22 C 77.3 22.3 78.5 22.9 79.5 23.7 C 79.9 24 80.2 24.6 80.2 25.1 L 80.2 27.8 L 66.2 27.8 L 66.2 25 Z M 43.9 13 C 45.2 13 46.2 14 46.2 15.3 C 46.2 16.6 45.2 17.6 43.9 17.6 C 42.6 17.6 41.6 16.6 41.6 15.3 C 41.6 15.3 41.6 15.3 41.6 15.3 C 41.6 14.1 42.6 13 43.9 13 L 43.9 13 Z M 39.2 20.5 C 39.2 20.1 39.4 19.8 39.7 19.6 C 40.4 19.1 41.2 18.8 42 18.6 C 42.6 18.4 43.3 18.3 43.9 18.3 C 44.5 18.3 45.2 18.4 45.8 18.6 C 46.6 18.8 47.3 19.2 48 19.7 C 48.3 19.9 48.5 20.3 48.5 20.6 L 48.5 22.4 L 39.3 22.4 L 39.3 20.5 Z M 18.2 35.6 C 20.1 35.6 21.7 37.2 21.7 39.1 C 21.7 41 20.1 42.6 18.2 42.6 C 16.3 42.6 14.7 41 14.7 39.1 C 14.7 39.1 14.7 39.1 14.7 39.1 C 14.8 37.2 16.3 35.6 18.2 35.6 L 18.2 35.6 Z M 11.2 49.7 L 11.2 47 C 11.2 46.5 11.5 45.9 11.9 45.6 C 12.9 44.9 14.1 44.3 15.3 44 C 16.2 43.7 17.2 43.6 18.2 43.6 C 19.2 43.6 20.2 43.8 21.1 44 C 22.3 44.3 23.5 44.9 24.5 45.7 C 24.9 46 25.2 46.6 25.2 47.1 L 25.2 49.8 L 11.2 49.7 Z M 28.5 82.3 L 19.2 82.3 L 19.2 80.5 C 19.2 80.1 19.4 79.8 19.7 79.6 C 20.4 79.1 21.2 78.7 22 78.5 C 22.6 78.3 23.3 78.2 23.9 78.2 C 24.5 78.2 25.2 78.3 25.8 78.5 C 26.6 78.7 27.3 79.1 28 79.6 C 28.3 79.8 28.5 80.2 28.5 80.5 L 28.5 82.3 Z M 21.5 75.3 C 21.5 74 22.5 73 23.8 73 C 25.1 73 26.1 74 26.1 75.3 C 26.1 76.6 25.1 77.6 23.8 77.6 C 22.6 77.7 21.6 76.6 21.5 75.3 L 21.5 75.3 Z M 29.5 72.5 C 28.2 71.2 26.4 70.4 24.6 70.2 L 22.1 55.2 C 24.5 54.4 26.6 52.9 28.1 50.9 L 37.4 55.8 C 35.9 59.8 36.2 64.3 38.2 68.1 L 29.5 72.5 Z M 39.3 52.1 L 30.1 47.3 C 30.5 46 30.7 44.7 30.7 43.3 C 30.7 40.7 29.9 38.2 28.4 36.1 L 39.6 25.2 C 43.4 27.5 48.4 26.4 50.7 22.6 C 51 22.1 51.2 21.6 51.4 21.1 L 60.7 22.1 C 60.9 25.7 62.7 29.1 65.6 31.3 L 57.4 46.6 C 50.9 44 43.4 46.3 39.3 52.1 L 39.3 52.1 Z M 56.3 55.8 C 56.3 58.2 54.3 60.1 51.9 60.1 C 49.5 60.1 47.6 58.2 47.6 55.8 C 47.6 53.4 49.5 51.5 51.9 51.5 C 51.9 51.5 51.9 51.5 52 51.5 C 54.4 51.5 56.3 53.4 56.3 55.8 L 56.3 55.8 Z M 60.6 68.9 L 43.3 68.9 L 43.3 65.6 C 43.3 64.9 43.6 64.3 44.2 63.9 C 45.5 63 46.9 62.3 48.4 61.8 C 49.6 61.5 50.8 61.3 52 61.3 C 53.2 61.3 54.4 61.5 55.6 61.8 C 57.1 62.2 58.6 62.9 59.8 63.9 C 60.3 64.3 60.7 65 60.7 65.6 L 60.6 68.9 Z M 74.8 47.3 C 74.8 47.9 74.9 48.5 75.1 49.1 L 65.9 53.9 C 64.8 51.7 63.1 49.9 61.1 48.5 L 69.3 33.2 C 70.6 33.7 72 33.9 73.4 33.9 C 74.2 33.9 75 33.8 75.8 33.7 L 78.4 40.7 C 76 42.1 74.7 44.6 74.8 47.3 Z M 87.5 51.3 L 78.2 51.3 L 78.2 49.5 C 78.2 49.1 78.4 48.8 78.7 48.6 C 79.4 48.1 80.2 47.7 81 47.5 C 81.6 47.3 82.3 47.2 82.9 47.2 C 83.5 47.2 84.2 47.3 84.8 47.5 C 85.6 47.7 86.3 48.1 87 48.6 C 87.3 48.8 87.5 49.2 87.5 49.5 L 87.5 51.3 Z"/></svg>